<svg width="15" height="24" viewBox="0 0 15 24" fill="none" xmlns="http://www.w3.org/2000/svg">
<path d="M9 13.3312C12.0047 12.6516 14.25 9.96094 14.25 6.75C14.25 3.02344 11.2266 0 7.5 0C3.77344 0 0.75 3.02344 0.75 6.75C0.75 9.96094 2.99531 12.6516 6 13.3312V22.5C6 23.3297 6.67031 24 7.5 24C8.32969 24 9 23.3297 9 22.5V13.3312ZM7.875 4.5C6.42656 4.5 5.25 5.67656 5.25 7.125C5.25 7.74844 4.74844 8.25 4.125 8.25C3.50156 8.25 3 7.74844 3 7.125C3 4.43437 5.18437 2.25 7.875 2.25C8.49844 2.25 9 2.75156 9 3.375C9 3.99844 8.49844 4.5 7.875 4.5Z" fill="black"/>
</svg>
